<svg id="Layer_1" data-name="Layer 1" xmlns="http://www.w3.org/2000/svg" viewBox="0 0 500 500"><defs><style>.cls-1{fill:#9b705d;}.cls-2{fill:#fff;}</style></defs><rect class="cls-1" x="56.39" y="62.14" width="360.61" height="335" rx="12.26"/><path class="cls-2" d="M236.71,371.42c-34.37,0-68.75.06-103.13,0-9.88,0-16.89-5-21.09-13.85a19.27,19.27,0,0,1-1.81-8.49c0-13.3-.13-26.61.11-39.91.1-5.48,1.53-10.85,3.1-16.12a77.13,77.13,0,0,1,14.4-27.25A80.06,80.06,0,0,1,151,246.64a82.24,82.24,0,0,1,24.62-8.85,58.52,58.52,0,0,1,7.64-.82c5.72-.38,11.44-.17,17.15-.27a5.26,5.26,0,0,1,2.43.51,81.65,81.65,0,0,0,17.47,5.61,69.56,69.56,0,0,0,19.4,1.06,67.78,67.78,0,0,0,23.36-5.8,14.66,14.66,0,0,1,6.34-1.42c5.41.13,10.83,0,16.24.06a79.12,79.12,0,0,1,16,2.05,76.94,76.94,0,0,1,32.69,16.17,78.28,78.28,0,0,1,17.91,21.36,76.17,76.17,0,0,1,9.21,25.79,118.74,118.74,0,0,1,1.22,18.45c0,9.41.06,18.82,0,28.23a22.68,22.68,0,0,1-18.19,22.09,31.06,31.06,0,0,1-5.76.56Z"/><path class="cls-2" d="M228.6,87.83c46.24-.18,79.66,33.06,79.5,74.12A74.16,74.16,0,0,1,160,167.42c-1.55-22.42,5.7-41.94,21.65-57.94C196,95,213.63,88.05,228.6,87.83Z"/></svg>