<svg id="Layer_1" data-name="Layer 1" xmlns="http://www.w3.org/2000/svg" viewBox="0 0 500 500"><defs><style>.cls-1{fill:#55a55e;}.cls-2{fill:#fff;}</style></defs><rect class="cls-1" x="66.32" y="77.63" width="370.13" height="343.84" rx="15.16"/><path class="cls-2" d="M359.05,197.17a68.36,68.36,0,0,1,31.89,6.4,42.21,42.21,0,0,1,14.14,10.52c4.1,4.67,5.63,15.12.63,21.51a38,38,0,0,1-17,12.33c-22,8.14-43.87,8.23-65.33-2.06a34.15,34.15,0,0,1-10-7.31c-8.41-8.82-8-19.38,1-27.58,7.23-6.55,16-10,25.33-12.16C345.43,197.48,351.27,197.25,359.05,197.17Z"/><path class="cls-2" d="M146.26,277.73c-14.43-.13-26.62-2-37.78-8.29-4.39-2.5-8.37-5.46-11.3-9.66a17.32,17.32,0,0,1,.95-21.87,39.48,39.48,0,0,1,17.39-11.57c21.22-7.5,42.28-7.37,63,2a36.49,36.49,0,0,1,10.07,6.85c9,8.54,9.06,19.62.26,28.31-5.79,5.72-13,8.91-20.63,11.11A84,84,0,0,1,146.26,277.73Z"/><path class="cls-2" d="M252.22,173.38a65.19,65.19,0,0,1,32.4,6.42,39.49,39.49,0,0,1,12,8.48c7.57,8.11,7.55,17.89-.09,25.92a42.51,42.51,0,0,1-17.86,10.88c-20.56,6.8-40.89,6.32-60.81-2.53a33.93,33.93,0,0,1-12.57-9.34c-6.71-8.09-6.4-17.22.78-24.91,5.83-6.23,13.38-9.36,21.24-12S243.25,172.93,252.22,173.38Z"/><path class="cls-2" d="M200.22,240.15a75,75,0,0,0,9.18,7.48c8.41,5.37,17.69,8.34,27.46,9.84,17.45,2.69,34.35.85,50.51-6.54a48.51,48.51,0,0,0,13.3-9.08c.47-.44,1-.86,1.44-1.28.7.39.42,1,.43,1.45,0,5.4,0,10.79,0,16.19a3.18,3.18,0,0,1-1.11,2.55c-8.65,8.27-19.12,12.95-30.68,15.24-16.5,3.27-32.84,2.63-48.85-2.87a56.28,56.28,0,0,1-20.8-12.5,2.28,2.28,0,0,1-.93-1.82C200.24,252.76,200.22,246.71,200.22,240.15Z"/><path class="cls-2" d="M306.87,288.07a54.69,54.69,0,0,0,10.44,8.29,73.15,73.15,0,0,0,34.32,9.89c12.78.56,25.36-.27,37.42-5.1,6.91-2.76,13.31-6.3,18.66-11.55.36-.35.75-.67,1.48-1.31v7c0,3.42-.06,6.84,0,10.26a3.69,3.69,0,0,1-1.26,2.91c-7.92,8.1-17.8,12.51-28.62,14.95-19.7,4.43-38.93,3.05-57.46-5.35a50.86,50.86,0,0,1-14.27-10.09,2,2,0,0,1-.75-1.51C306.88,300.52,306.87,294.61,306.87,288.07Z"/><path class="cls-2" d="M195.9,288.26c0,6.29,0,12.07,0,17.86a3,3,0,0,1-1.27,2.29c-8.07,8.13-18.05,12.75-29.05,15-19.5,4-38.71,3.41-57.11-5.23a52,52,0,0,1-14.29-10.4,1.8,1.8,0,0,1-.64-1.36c0-5.9,0-11.8,0-18,14.55,13.59,32,18.23,51.07,18.06S181.28,302.19,195.9,288.26Z"/><path class="cls-2" d="M302,216.9a8.33,8.33,0,0,1,.46,3.42c.06,4.27,0,8.55.12,12.83a4.71,4.71,0,0,1-1.64,3.93c-7.64,7.33-16.87,11.66-27,14-17.93,4.17-35.75,3.94-53.22-2.51a53.74,53.74,0,0,1-19.46-12.11c-.51-.51-1.07-.9-1.05-1.78.12-5.19-.19-10.4.25-15.59.06-.68-.18-1.69.53-2,.86-.34,1,.8,1.5,1.25a55.1,55.1,0,0,0,15.93,10.07c13.58,5.95,27.86,6.94,42.39,5.67,10-.88,19.71-3.22,28.7-8a51.55,51.55,0,0,0,9.93-7.09C300.21,218.34,301,217.7,302,216.9Z"/><path class="cls-2" d="M200.22,288.16a59.66,59.66,0,0,0,11.43,8.92c9.45,5.33,19.72,7.93,30.42,9,14.93,1.48,29.42-.29,43.29-6.18a48.53,48.53,0,0,0,15.85-10.52,7.73,7.73,0,0,1,.73-.67c.08-.07.23-.07.61-.16v8.63c0,2.7-.1,5.4,0,8.09a4.1,4.1,0,0,1-1.5,3.4c-8.5,8.42-19,13-30.49,15.12-19.65,3.6-38.92,2.65-57.17-6.54a52.27,52.27,0,0,1-12.57-9.45,1.77,1.77,0,0,1-.64-1.36C200.23,300.53,200.22,294.63,200.22,288.16Z"/><path class="cls-2" d="M306.88,264.35a9.6,9.6,0,0,1,1,.73c9.24,9.16,20.67,13.81,33.23,16A92,92,0,0,0,386,278.33c8.12-2.63,15.49-6.54,21.58-12.65.4-.4.86-.75,1.63-1.41v7c0,3.49,0,7,0,10.46a3.8,3.8,0,0,1-1.25,3.09c-8,7.7-17.67,12.05-28.26,14.51-19.26,4.49-38.13,3.33-56.42-4.5a50.42,50.42,0,0,1-15.62-10.87c-.37-.37-.79-.69-.79-1.3Z"/><path class="cls-2" d="M195.89,264.23c0,6.42,0,12.32,0,18.22,0,.86-.64,1.24-1.13,1.75-7.18,7.39-16.06,11.84-25.88,14.39-20.09,5.22-39.86,4.5-59.09-3.83a45.36,45.36,0,0,1-15.35-10.55c-.4-.42-.89-.74-.89-1.44,0-6.09,0-12.17,0-18.59a10.48,10.48,0,0,1,1,.79c9.1,9.24,20.5,13.82,33,16.09a90.54,90.54,0,0,0,46.7-3.29,52.69,52.69,0,0,0,19.93-12C194.58,265.32,195.05,265,195.89,264.23Z"/><path class="cls-2" d="M307.53,241c14.21,13.53,31.84,17.56,50.63,17.69s36.36-4.34,51-18V248c0,3.42-.05,6.84,0,10.26a3.28,3.28,0,0,1-1.21,2.7c-9.28,8.77-20.55,13.35-32.92,15.41-15.68,2.62-31.19,2.14-46.32-3.31-7.9-2.84-15.09-6.82-20.94-13-.45-.47-1-.83-1-1.61.1-5.66-.21-11.32.33-17C307.2,241.38,307.32,241.28,307.53,241Z"/><path class="cls-2" d="M302.54,264.66c0,6,0,11.92,0,17.89,0,.88-.64,1.22-1.14,1.72-9.62,9.67-21.72,14.09-34.79,16.27a87.56,87.56,0,0,1-50.05-5.79,50.57,50.57,0,0,1-15.63-10.85,1.81,1.81,0,0,1-.73-1.32c0-6,0-11.94,0-17.85.57-.23.77.11,1,.31,8.56,8.49,19,13.45,30.68,15.61,18.65,3.45,37.06,2.76,54.72-5.16A60.35,60.35,0,0,0,302.54,264.66Z"/></svg>