<svg xmlns="http://www.w3.org/2000/svg" width="16" height="16" viewBox="0 0 16 16">
  <g id="phone-call_1_" data-name="phone-call (1)" transform="translate(16) rotate(90)">
    <g id="Group_10" data-name="Group 10">
      <path id="Path_3" data-name="Path 3" d="M.959,11.742,3.2,9.51a1.49,1.49,0,0,1,2.477.558,1.523,1.523,0,0,0,1.758.957,6.893,6.893,0,0,0,4.155-4.147,1.445,1.445,0,0,0-.959-1.754,1.484,1.484,0,0,1-.559-2.472L12.306.419a1.6,1.6,0,0,1,2.158,0l1.518,1.515c1.518,1.595-.16,5.821-3.916,9.569s-7.991,5.5-9.589,3.907L.959,13.9A1.59,1.59,0,0,1,.959,11.742Z" transform="translate(-0.539 0)" fill="#1fd662"/>
    </g>
  </g>
</svg>
