<svg width="16" height="16" viewBox="0 0 16 16" fill="none" xmlns="http://www.w3.org/2000/svg">
<path fill-rule="evenodd" clip-rule="evenodd" d="M5.27356 0H1.71791C1.26249 0.000664999 0.825924 0.181872 0.503898 0.503898C0.181872 0.825924 0.000664999 1.26249 0 1.71791V5.27356C0 5.72917 0.180993 6.16613 0.503163 6.4883C0.825333 6.81047 1.26229 6.99146 1.71791 6.99146H5.27356C5.72917 6.99146 6.16613 6.81047 6.4883 6.4883C6.81047 6.16613 6.99146 5.72917 6.99146 5.27356V1.71791C6.99146 1.26229 6.81047 0.825333 6.4883 0.503163C6.16613 0.180993 5.72917 0 5.27356 0ZM14.2821 0H10.7264C10.271 0.000664999 9.83446 0.181872 9.51243 0.503898C9.1904 0.825924 9.0092 1.26249 9.00853 1.71791V5.27356C9.00853 5.72917 9.18953 6.16613 9.5117 6.4883C9.83387 6.81047 10.2708 6.99146 10.7264 6.99146H14.2821C14.7377 6.99146 15.1747 6.81047 15.4968 6.4883C15.819 6.16613 16 5.72917 16 5.27356V1.71791C16 1.26229 15.819 0.825333 15.4968 0.503163C15.1747 0.180993 14.7377 0 14.2821 0ZM1.71791 9.00853H5.27356C5.72917 9.00853 6.16613 9.18953 6.4883 9.5117C6.81047 9.83387 6.99146 10.2708 6.99146 10.7264V14.2821C6.99146 14.7377 6.81047 15.1747 6.4883 15.4968C6.16613 15.819 5.72917 16 5.27356 16H1.71791C1.26229 16 0.825333 15.819 0.503163 15.4968C0.180993 15.1747 0 14.7377 0 14.2821V10.7264C0.000664999 10.271 0.181872 9.83446 0.503898 9.51243C0.825924 9.1904 1.26249 9.0092 1.71791 9.00853ZM14.2821 9.00853H10.7264C10.271 9.0092 9.83446 9.1904 9.51243 9.51243C9.1904 9.83446 9.0092 10.271 9.00853 10.7264V14.2821C9.00853 14.7377 9.18953 15.1747 9.5117 15.4968C9.83387 15.819 10.2708 16 10.7264 16H14.2821C14.7377 16 15.1747 15.819 15.4968 15.4968C15.819 15.1747 16 14.7377 16 14.2821V10.7264C16 10.2708 15.819 9.83387 15.4968 9.5117C15.1747 9.18953 14.7377 9.00853 14.2821 9.00853Z" fill="white"/>
</svg>
