<svg width="16" height="16" viewBox="0 0 16 16" fill="none" xmlns="http://www.w3.org/2000/svg">
<path d="M3.99 0.49875C3.99 0.366473 3.93745 0.239614 3.84392 0.14608C3.75039 0.0525467 3.62353 0 3.49125 0C3.35897 0 3.23211 0.0525467 3.13858 0.14608C3.04505 0.239614 2.9925 0.366473 2.9925 0.49875V0.9975H1.995C1.46589 0.9975 0.958457 1.20769 0.584322 1.58182C0.210187 1.95596 0 2.46339 0 2.9925L0 3.99H15.96V2.9925C15.96 2.46339 15.7498 1.95596 15.3757 1.58182C15.0015 1.20769 14.4941 0.9975 13.965 0.9975H12.9675V0.49875C12.9675 0.366473 12.915 0.239614 12.8214 0.14608C12.7279 0.0525467 12.601 0 12.4688 0C12.3365 0 12.2096 0.0525467 12.1161 0.14608C12.0225 0.239614 11.97 0.366473 11.97 0.49875V0.9975H3.99V0.49875ZM15.96 13.965V4.9875H0V13.965C0 14.4941 0.210187 15.0015 0.584322 15.3757C0.958457 15.7498 1.46589 15.96 1.995 15.96H13.965C14.4941 15.96 15.0015 15.7498 15.3757 15.3757C15.7498 15.0015 15.96 14.4941 15.96 13.965ZM9.47625 6.9825H10.4738C10.606 6.9825 10.7329 7.03505 10.8264 7.12858C10.92 7.22211 10.9725 7.34897 10.9725 7.48125V8.47875C10.9725 8.61103 10.92 8.73789 10.8264 8.83142C10.7329 8.92495 10.606 8.9775 10.4738 8.9775H9.47625C9.34397 8.9775 9.21711 8.92495 9.12358 8.83142C9.03005 8.73789 8.9775 8.61103 8.9775 8.47875V7.48125C8.9775 7.34897 9.03005 7.22211 9.12358 7.12858C9.21711 7.03505 9.34397 6.9825 9.47625 6.9825ZM12.4688 6.9825H13.4663C13.5985 6.9825 13.7254 7.03505 13.8189 7.12858C13.9125 7.22211 13.965 7.34897 13.965 7.48125V8.47875C13.965 8.61103 13.9125 8.73789 13.8189 8.83142C13.7254 8.92495 13.5985 8.9775 13.4663 8.9775H12.4688C12.3365 8.9775 12.2096 8.92495 12.1161 8.83142C12.0225 8.73789 11.97 8.61103 11.97 8.47875V7.48125C11.97 7.34897 12.0225 7.22211 12.1161 7.12858C12.2096 7.03505 12.3365 6.9825 12.4688 6.9825ZM1.995 10.4738C1.995 10.3415 2.04755 10.2146 2.14108 10.1211C2.23461 10.0275 2.36147 9.975 2.49375 9.975H3.49125C3.62353 9.975 3.75039 10.0275 3.84392 10.1211C3.93745 10.2146 3.99 10.3415 3.99 10.4738V11.4712C3.99 11.6035 3.93745 11.7304 3.84392 11.8239C3.75039 11.9175 3.62353 11.97 3.49125 11.97H2.49375C2.36147 11.97 2.23461 11.9175 2.14108 11.8239C2.04755 11.7304 1.995 11.6035 1.995 11.4712V10.4738ZM5.48625 9.975H6.48375C6.61603 9.975 6.74289 10.0275 6.83642 10.1211C6.92995 10.2146 6.9825 10.3415 6.9825 10.4738V11.4712C6.9825 11.6035 6.92995 11.7304 6.83642 11.8239C6.74289 11.9175 6.61603 11.97 6.48375 11.97H5.48625C5.35397 11.97 5.22711 11.9175 5.13358 11.8239C5.04005 11.7304 4.9875 11.6035 4.9875 11.4712V10.4738C4.9875 10.3415 5.04005 10.2146 5.13358 10.1211C5.22711 10.0275 5.35397 9.975 5.48625 9.975Z" fill="#C8D1E3"/>
</svg>
